<?xml version="1.0" encoding="UTF-8"?>
<svg xmlns="http://www.w3.org/2000/svg" xmlns:xlink="http://www.w3.org/1999/xlink" width="24px" height="24px" viewBox="0 0 24 24" version="1.1">
<g id="surface1">
<path style=" stroke:none;fill-rule:nonzero;fill:rgb(100%,100%,100%);fill-opacity:1;" d="M 23 10.625 C 22.957031 10.222656 22.894531 9.753906 22.765625 9.242188 C 22.636719 8.730469 22.425781 8.175781 22.148438 7.582031 C 21.847656 7.007812 21.488281 6.386719 20.996094 5.8125 C 20.804688 5.578125 20.59375 5.367188 20.378906 5.132812 C 20.71875 3.789062 19.972656 2.617188 19.972656 2.617188 C 18.675781 2.535156 17.867188 3.023438 17.566406 3.238281 C 17.523438 3.214844 17.460938 3.195312 17.417969 3.171875 C 17.207031 3.089844 16.972656 3.003906 16.738281 2.917969 C 16.503906 2.851562 16.269531 2.769531 16.035156 2.726562 C 15.800781 2.660156 15.546875 2.617188 15.289062 2.574219 C 15.246094 2.574219 15.203125 2.554688 15.160156 2.554688 C 14.609375 0.765625 12.988281 0 12.988281 0 C 11.136719 1.191406 10.773438 2.789062 10.773438 2.789062 C 10.773438 2.789062 10.773438 2.832031 10.753906 2.875 C 10.648438 2.894531 10.5625 2.9375 10.457031 2.960938 C 10.328125 3.003906 10.179688 3.046875 10.050781 3.109375 C 9.921875 3.171875 9.773438 3.214844 9.644531 3.277344 C 9.367188 3.40625 9.113281 3.535156 8.835938 3.683594 C 8.582031 3.828125 8.332031 3.984375 8.09375 4.152344 C 8.050781 4.132812 8.027344 4.109375 8.027344 4.109375 C 5.535156 3.152344 3.320312 4.300781 3.320312 4.300781 C 3.128906 6.964844 4.324219 8.625 4.558594 8.921875 C 4.492188 9.09375 4.449219 9.242188 4.386719 9.414062 C 4.195312 10.015625 4.0625 10.636719 3.980469 11.265625 C 3.960938 11.351562 3.960938 11.457031 3.9375 11.542969 C 1.640625 12.671875 0.957031 15.015625 0.957031 15.015625 C 2.875 17.230469 5.132812 17.355469 5.132812 17.355469 C 5.414062 17.867188 5.742188 18.351562 6.113281 18.804688 C 6.261719 18.996094 6.429688 19.167969 6.601562 19.359375 C 5.898438 21.359375 6.707031 23.042969 6.707031 23.042969 C 8.859375 23.128906 10.265625 22.105469 10.5625 21.871094 L 11.199219 22.0625 C 11.859375 22.234375 12.542969 22.339844 13.203125 22.363281 L 14.074219 22.363281 C 15.078125 23.808594 16.867188 24.003906 16.867188 24.003906 C 18.121094 22.660156 18.207031 21.359375 18.207031 21.0625 L 18.207031 20.933594 C 18.464844 20.742188 18.71875 20.550781 18.976562 20.339844 C 19.484375 19.890625 19.910156 19.359375 20.296875 18.804688 C 20.335938 18.761719 20.355469 18.699219 20.402344 18.65625 C 21.828125 18.742188 22.828125 17.761719 22.828125 17.761719 C 22.589844 16.273438 21.742188 15.546875 21.570312 15.421875 L 21.53125 15.378906 L 21.511719 15.355469 C 21.511719 15.273438 21.53125 15.1875 21.53125 15.078125 C 21.550781 14.910156 21.550781 14.761719 21.550781 14.589844 L 21.550781 13.972656 C 21.550781 13.929688 21.550781 13.886719 21.53125 13.84375 L 21.488281 13.589844 C 21.46875 13.417969 21.425781 13.269531 21.402344 13.097656 C 21.253906 12.46875 21.007812 11.863281 20.675781 11.308594 C 20.339844 10.769531 19.933594 10.285156 19.460938 9.859375 C 19.003906 9.457031 18.488281 9.125 17.929688 8.882812 C 17.398438 8.632812 16.828125 8.476562 16.246094 8.410156 C 15.96875 8.367188 15.671875 8.367188 15.394531 8.367188 L 14.96875 8.367188 C 14.820312 8.390625 14.671875 8.410156 14.542969 8.433594 C 13.96875 8.539062 13.433594 8.753906 12.964844 9.027344 C 12.496094 9.304688 12.09375 9.667969 11.753906 10.070312 C 11.421875 10.457031 11.160156 10.894531 10.984375 11.371094 C 10.816406 11.816406 10.707031 12.308594 10.6875 12.753906 L 10.6875 13.265625 C 10.6875 13.328125 10.6875 13.371094 10.707031 13.4375 C 10.773438 14.09375 11.015625 14.71875 11.410156 15.246094 C 11.667969 15.585938 11.941406 15.84375 12.261719 16.054688 C 12.582031 16.269531 12.902344 16.417969 13.242188 16.523438 C 13.585938 16.632812 13.902344 16.671875 14.199219 16.652344 L 14.648438 16.652344 C 14.691406 16.652344 14.730469 16.632812 14.753906 16.632812 C 14.796875 16.632812 14.816406 16.609375 14.859375 16.609375 C 14.921875 16.589844 15.007812 16.566406 15.070312 16.546875 C 15.199219 16.503906 15.328125 16.441406 15.457031 16.398438 C 15.582031 16.332031 15.6875 16.269531 15.773438 16.203125 C 15.796875 16.183594 15.839844 16.160156 15.859375 16.140625 C 15.964844 16.058594 15.984375 15.90625 15.902344 15.800781 C 15.816406 15.71875 15.691406 15.691406 15.582031 15.734375 C 15.5625 15.757812 15.539062 15.757812 15.5 15.777344 C 15.410156 15.824219 15.316406 15.859375 15.222656 15.886719 C 15.113281 15.90625 15.007812 15.949219 14.902344 15.96875 C 14.839844 15.96875 14.796875 15.992188 14.730469 15.992188 L 14.371094 15.992188 C 14.371094 15.992188 14.351562 15.992188 14.371094 15.992188 L 14.285156 15.992188 C 14.261719 15.992188 14.222656 15.992188 14.199219 15.96875 C 13.964844 15.925781 13.710938 15.863281 13.476562 15.757812 C 13.242188 15.648438 13.007812 15.5 12.816406 15.308594 C 12.601562 15.117188 12.433594 14.90625 12.285156 14.648438 C 12.136719 14.394531 12.050781 14.117188 12.007812 13.839844 C 11.984375 13.691406 11.964844 13.542969 11.984375 13.394531 L 11.984375 13.265625 C 11.984375 13.285156 11.984375 13.265625 11.984375 13.265625 L 11.984375 13.160156 C 11.984375 13.074219 12.007812 13.011719 12.027344 12.925781 C 12.140625 12.265625 12.460938 11.660156 12.945312 11.199219 C 13.074219 11.070312 13.199219 10.964844 13.351562 10.882812 C 13.5 10.773438 13.648438 10.6875 13.796875 10.625 C 13.945312 10.5625 14.117188 10.496094 14.285156 10.453125 C 14.457031 10.410156 14.628906 10.371094 14.796875 10.371094 C 14.882812 10.371094 14.96875 10.347656 15.054688 10.347656 L 15.222656 10.347656 C 15.246094 10.347656 15.222656 10.347656 15.222656 10.347656 L 15.308594 10.347656 C 15.878906 10.394531 16.433594 10.5625 16.929688 10.839844 C 17.609375 11.222656 18.183594 11.796875 18.523438 12.5 C 18.695312 12.839844 18.824219 13.222656 18.886719 13.628906 C 18.90625 13.734375 18.90625 13.820312 18.929688 13.925781 L 18.929688 14.480469 C 18.929688 14.585938 18.910156 14.695312 18.910156 14.800781 C 18.886719 14.90625 18.886719 15.011719 18.867188 15.117188 L 18.800781 15.4375 C 18.78125 15.542969 18.675781 15.84375 18.609375 16.054688 C 18.546875 16.269531 18.25 16.84375 17.992188 17.183594 C 17.476562 17.894531 16.785156 18.457031 15.988281 18.824219 C 15.585938 18.996094 15.179688 19.144531 14.753906 19.207031 C 14.542969 19.25 14.332031 19.273438 14.117188 19.273438 L 13.796875 19.273438 C 13.816406 19.273438 13.796875 19.273438 13.796875 19.273438 L 13.777344 19.273438 C 13.671875 19.273438 13.542969 19.273438 13.433594 19.25 C 12.964844 19.207031 12.519531 19.121094 12.070312 18.996094 C 11.625 18.867188 11.199219 18.695312 10.792969 18.484375 C 9.984375 18.046875 9.265625 17.453125 8.6875 16.738281 C 8.410156 16.375 8.152344 15.992188 7.941406 15.589844 C 7.726562 15.183594 7.578125 14.757812 7.449219 14.332031 C 7.328125 13.902344 7.253906 13.460938 7.238281 13.011719 L 7.238281 12.351562 C 7.238281 12.140625 7.257812 11.90625 7.300781 11.671875 C 7.324219 11.4375 7.367188 11.222656 7.40625 10.992188 C 7.449219 10.761719 7.515625 10.546875 7.578125 10.3125 C 7.640625 10.078125 7.855469 9.441406 8.046875 9.035156 C 8.429688 8.226562 8.921875 7.5 9.496094 6.925781 C 9.644531 6.777344 9.792969 6.648438 9.964844 6.523438 C 10.027344 6.457031 10.175781 6.328125 10.347656 6.222656 C 10.515625 6.117188 10.6875 6.011719 10.878906 5.925781 C 10.964844 5.882812 11.050781 5.839844 11.15625 5.796875 C 11.199219 5.777344 11.242188 5.753906 11.304688 5.734375 C 11.347656 5.714844 11.390625 5.691406 11.453125 5.667969 C 11.644531 5.585938 11.835938 5.519531 12.027344 5.457031 C 12.070312 5.4375 12.136719 5.4375 12.179688 5.414062 C 12.222656 5.390625 12.285156 5.394531 12.328125 5.371094 C 12.371094 5.347656 12.519531 5.328125 12.625 5.285156 C 12.667969 5.265625 12.730469 5.265625 12.773438 5.242188 C 12.816406 5.242188 12.878906 5.222656 12.921875 5.222656 C 12.964844 5.222656 13.027344 5.199219 13.070312 5.199219 L 13.242188 5.15625 C 13.285156 5.15625 13.347656 5.136719 13.390625 5.136719 C 13.457031 5.136719 13.496094 5.117188 13.5625 5.117188 C 13.605469 5.117188 13.6875 5.09375 13.730469 5.09375 C 13.773438 5.09375 13.796875 5.09375 13.835938 5.074219 L 13.984375 5.074219 C 14.054688 5.074219 14.09375 5.074219 14.15625 5.054688 L 14.242188 5.054688 C 14.242188 5.054688 14.261719 5.054688 14.242188 5.054688 L 15.027344 5.054688 C 15.410156 5.074219 15.796875 5.117188 16.15625 5.179688 C 16.871094 5.304688 17.558594 5.535156 18.203125 5.863281 C 18.800781 6.152344 19.359375 6.515625 19.867188 6.949219 C 19.882812 6.96875 19.925781 6.992188 19.953125 7.03125 C 19.972656 7.054688 20.015625 7.074219 20.035156 7.117188 C 20.101562 7.160156 20.144531 7.222656 20.203125 7.265625 C 20.265625 7.308594 20.3125 7.371094 20.375 7.414062 C 20.417969 7.480469 20.484375 7.523438 20.523438 7.585938 C 21.089844 8.167969 21.570312 8.835938 21.929688 9.566406 C 21.949219 9.585938 21.949219 9.609375 21.972656 9.652344 C 21.992188 9.671875 21.992188 9.695312 22.015625 9.734375 C 22.035156 9.777344 22.058594 9.84375 22.097656 9.886719 C 22.121094 9.929688 22.140625 9.992188 22.164062 10.035156 C 22.183594 10.078125 22.207031 10.140625 22.226562 10.183594 C 22.3125 10.375 22.375 10.566406 22.441406 10.757812 C 22.546875 11.054688 22.609375 11.3125 22.675781 11.523438 C 22.699219 11.613281 22.777344 11.671875 22.867188 11.675781 C 22.972656 11.675781 23.035156 11.589844 23.035156 11.480469 C 23.015625 11.226562 23.015625 10.949219 22.992188 10.628906 Z M 23 10.625 "/>
</g>
</svg>
