<?xml version="1.0" encoding="UTF-8"?>
<svg xmlns="http://www.w3.org/2000/svg" xmlns:xlink="http://www.w3.org/1999/xlink" width="32px" height="32px" viewBox="0 0 32 32" version="1.1">
<g id="surface1">
<path style=" stroke:none;fill-rule:nonzero;fill:rgb(0%,50.196078%,50.196078%);fill-opacity:1;" d="M 31.15625 27.789062 C 31.15625 29.648438 29.648438 31.15625 27.789062 31.15625 L 4.210938 31.15625 C 2.351562 31.15625 0.84375 29.648438 0.84375 27.789062 L 0.84375 4.210938 C 0.84375 2.351562 2.351562 0.84375 4.210938 0.84375 L 27.789062 0.84375 C 29.648438 0.84375 31.15625 2.351562 31.15625 4.210938 Z M 31.15625 27.789062 "/>
<path style=" stroke:none;fill-rule:nonzero;fill:rgb(98.823529%,92.54902%,83.921569%);fill-opacity:1;" d="M 7.726562 8.527344 C 7.882812 7.585938 8.898438 6.515625 10.285156 6.515625 C 11.589844 6.515625 12.609375 7.457031 12.894531 8.394531 L 15.976562 18.734375 L 16.027344 18.734375 L 19.109375 8.394531 C 19.394531 7.457031 20.414062 6.515625 21.71875 6.515625 C 23.105469 6.515625 24.121094 7.585938 24.28125 8.527344 L 26.707031 23.097656 C 26.734375 23.253906 26.734375 23.410156 26.734375 23.539062 C 26.734375 24.6875 25.898438 25.417969 24.855469 25.417969 C 23.523438 25.417969 23 24.820312 22.816406 23.59375 L 21.277344 12.964844 L 21.222656 12.964844 L 18.089844 23.90625 C 17.910156 24.53125 17.414062 25.417969 16.003906 25.417969 C 14.59375 25.417969 14.097656 24.53125 13.914062 23.90625 L 10.78125 12.964844 L 10.726562 12.964844 L 9.1875 23.59375 C 9.003906 24.820312 8.484375 25.417969 7.152344 25.417969 C 6.105469 25.417969 5.269531 24.6875 5.269531 23.539062 C 5.269531 23.410156 5.269531 23.253906 5.296875 23.097656 Z M 7.726562 8.527344 "/>
</g>
</svg>
