<?xml version="1.0" encoding="UTF-8"?>
<svg xmlns="http://www.w3.org/2000/svg" xmlns:xlink="http://www.w3.org/1999/xlink" width="32px" height="32px" viewBox="0 0 32 32" version="1.1">
<g id="surface1">
<path style=" stroke:none;fill-rule:nonzero;fill:rgb(0%,50.196081%,50.196081%);fill-opacity:1;" d="M 16 0 C 24.835938 0 32 7.164062 32 16 C 32 24.835938 24.835938 32 16 32 C 7.164062 32 0 24.835938 0 16 C 0 7.164062 7.164062 0 16 0 Z M 16 0 "/>
<path style=" stroke:none;fill-rule:nonzero;fill:rgb(100%,100%,100%);fill-opacity:0.0117647;" d="M 2.667969 2.667969 L 29.332031 2.667969 L 29.332031 29.332031 L 2.667969 29.332031 Z M 2.667969 2.667969 "/>
<path style="fill-rule:nonzero;fill:rgb(0%,50.196081%,50.196081%);fill-opacity:1;stroke-width:4;stroke-linecap:butt;stroke-linejoin:round;stroke:rgb(0%,0%,0%);stroke-opacity:1;stroke-miterlimit:4;" d="M 6 7.996874 L 41.999999 7.996874 C 43.103905 7.996874 43.996874 8.896874 43.996874 10.000781 L 43.996874 37.999217 C 43.996874 39.103124 43.103905 40.003124 41.999999 40.003124 L 6 40.003124 C 4.896093 40.003124 4.003125 39.103124 4.003125 37.999217 L 4.003125 10.000781 C 4.003125 8.896874 4.896093 7.996874 6 7.996874 Z M 6 7.996874 " transform="matrix(0.555556,0,0,0.555556,2.666667,2.666667)"/>
<path style="fill:none;stroke-width:4;stroke-linecap:round;stroke-linejoin:round;stroke:rgb(100%,100%,100%);stroke-opacity:1;stroke-miterlimit:4;" d="M 11.997656 18.002343 L 19.00078 23.999999 L 11.997656 29.997655 " transform="matrix(0.555556,0,0,0.555556,2.666667,2.666667)"/>
<path style="fill:none;stroke-width:4;stroke-linecap:round;stroke-linejoin:round;stroke:rgb(100%,100%,100%);stroke-opacity:1;stroke-miterlimit:4;" d="M 23.001562 32.001561 L 36.002342 32.001561 " transform="matrix(0.555556,0,0,0.555556,2.666667,2.666667)"/>
</g>
</svg>
