<?xml version="1.0" encoding="UTF-8"?>
<svg xmlns="http://www.w3.org/2000/svg" xmlns:xlink="http://www.w3.org/1999/xlink" width="32px" height="32px" viewBox="0 0 32 32" version="1.1">
<g id="surface1">
<path style=" stroke:none;fill-rule:nonzero;fill:rgb(0%,50.196078%,50.196078%);fill-opacity:1;" d="M 16 0 C 24.835938 0 32 7.164062 32 16 C 32 24.835938 24.835938 32 16 32 C 7.164062 32 0 24.835938 0 16 C 0 7.164062 7.164062 0 16 0 Z M 16 0 "/>
<path style=" stroke:none;fill-rule:nonzero;fill:rgb(0%,0%,0%);fill-opacity:1;" d="M 16.042969 27.71875 C 14.269531 27.71875 13.078125 25.886719 13.808594 24.265625 L 10.808594 22.265625 C 8.738281 24.429688 5.34375 21.699219 7.011719 19.210938 C 8.679688 16.730469 12.492188 18.839844 11.273438 21.566406 L 14.277344 23.570312 C 14.367188 23.472656 14.46875 23.386719 14.574219 23.308594 L 9.761719 13.6875 C 6.894531 14.574219 5.246094 10.523438 7.917969 9.152344 C 10.597656 7.792969 12.910156 11.503906 10.507812 13.304688 L 15.316406 22.925781 C 15.40625 22.898438 15.492188 22.878906 15.578125 22.859375 L 15.578125 18.273438 C 12.925781 17.765625 12.925781 13.96875 15.578125 13.460938 L 15.578125 9.136719 C 12.636719 8.566406 13.09375 4.222656 16.089844 4.28125 C 19.089844 4.335938 19.386719 8.695312 16.421875 9.152344 L 16.421875 13.445312 C 19.191406 13.871094 19.191406 17.863281 16.421875 18.289062 L 16.421875 22.84375 C 16.511719 22.859375 16.605469 22.878906 16.691406 22.902344 L 21.492188 13.304688 C 19.097656 11.503906 21.414062 7.808594 24.078125 9.171875 C 26.742188 10.535156 25.097656 14.570312 22.238281 13.6875 L 17.449219 23.261719 C 17.5625 23.339844 17.667969 23.425781 17.761719 23.523438 L 20.664062 21.546875 C 19.359375 18.84375 23.117188 16.609375 24.871094 19.046875 C 26.621094 21.488281 23.300781 24.335938 21.15625 22.230469 L 18.253906 24.203125 C 19.039062 25.832031 17.855469 27.71875 16.042969 27.71875 Z M 16 29.332031 C 8.632812 29.332031 2.667969 23.367188 2.667969 16 C 2.667969 12.460938 4.074219 9.074219 6.574219 6.574219 C 11.777344 1.363281 20.222656 1.363281 25.425781 6.574219 C 30.636719 11.777344 30.636719 20.222656 25.425781 25.425781 C 22.933594 27.933594 19.539062 29.339844 16 29.332031 Z M 16 3.503906 C 9.097656 3.503906 3.503906 9.097656 3.503906 16 C 3.503906 19.3125 4.824219 22.492188 7.167969 24.832031 C 12.027344 29.734375 19.9375 29.757812 24.832031 24.898438 C 29.734375 20.035156 29.757812 12.125 24.898438 7.226562 C 22.554688 4.835938 19.347656 3.496094 16 3.503906 Z M 16 3.503906 "/>
</g>
</svg>
