<?xml version="1.0" standalone="no"?>
<!DOCTYPE svg PUBLIC "-//W3C//DTD SVG 20010904//EN"
 "http://www.w3.org/TR/2001/REC-SVG-20010904/DTD/svg10.dtd">
<svg version="1.0" xmlns="http://www.w3.org/2000/svg"
 width="700.000000pt" height="700.000000pt" viewBox="0 0 700.000000 700.000000"
 preserveAspectRatio="xMidYMid meet">
<metadata>
Created by potrace 1.14, written by Peter Selinger 2001-2017
</metadata>
<g transform="translate(0.000000,700.000000) scale(0.100000,-0.100000)"
fill="#000000" stroke="none">
<path d="M3250 6409 c-571 -50 -1114 -267 -1570 -627 -116 -92 -362 -337 -454
-452 -552 -693 -762 -1579 -580 -2441 116 -551 384 -1040 793 -1450 233 -232
459 -398 736 -539 630 -322 1347 -402 2040 -230 391 97 773 286 1098 542 121
96 365 338 461 458 856 1073 860 2572 8 3650 -97 122 -340 365 -462 462 -591
467 -1331 691 -2070 627z m495 -189 c957 -89 1785 -660 2210 -1525 290 -589
358 -1242 195 -1881 -246 -964 -1000 -1718 -1964 -1964 -637 -162 -1293 -95
-1881 195 -971 477 -1566 1463 -1532 2540 9 286 49 510 137 777 316 953 1124
1650 2120 1828 218 39 495 50 715 30z"/>
<path d="M3424 6060 c-224 -34 -392 -194 -439 -418 -20 -92 -19 -165 5 -256
26 -103 63 -168 135 -241 63 -63 154 -114 239 -136 l46 -11 0 -468 0 -467 -71
-23 c-496 -160 -486 -880 14 -1025 l57 -16 0 -499 0 -498 -22 -6 c-13 -3 -26
-6 -30 -6 -5 0 -244 471 -532 1048 l-524 1047 62 61 c214 211 208 533 -13 755
-113 114 -218 159 -367 159 -232 0 -458 -159 -525 -370 -68 -213 19 -478 200
-610 105 -76 159 -94 291 -94 63 -1 131 3 150 7 l35 8 525 -1050 c288 -577
522 -1051 520 -1053 -3 -2 -17 -13 -31 -26 l-27 -23 -326 217 c-254 169 -325
221 -320 233 43 96 53 236 26 342 -58 221 -296 399 -532 399 -217 0 -405 -135
-498 -357 -109 -260 36 -573 320 -690 91 -37 239 -44 335 -15 70 22 172 81
207 120 11 12 24 22 30 22 19 0 646 -423 646 -435 0 -7 -7 -32 -16 -56 -8 -24
-18 -80 -21 -124 -21 -305 228 -569 537 -569 348 0 613 338 521 664 -11 36
-22 74 -26 86 -6 18 32 46 305 232 171 117 313 212 316 212 3 0 24 -15 47 -34
101 -81 205 -119 327 -119 145 0 274 56 385 168 219 219 220 518 2 751 -55 59
-86 82 -153 116 -82 40 -89 42 -197 46 -91 3 -123 0 -174 -16 -295 -93 -462
-377 -382 -647 11 -39 23 -79 26 -91 4 -18 -37 -50 -306 -233 l-311 -212 -35
27 -34 26 522 1044 c508 1017 523 1045 547 1039 57 -14 205 -17 259 -5 184 40
345 201 395 397 22 86 21 216 -4 295 -63 206 -265 358 -495 375 -147 10 -284
-44 -395 -156 -220 -222 -226 -546 -14 -755 l62 -61 -524 -1047 -523 -1046
-28 7 -28 7 0 493 0 493 71 22 c102 33 166 71 233 140 159 166 194 412 89 626
-63 129 -206 240 -347 271 l-51 11 2 465 3 466 62 17 c199 54 336 198 378 398
60 282 -101 562 -365 635 -70 20 -181 27 -246 17z"/>
</g>
</svg>
